<svg xmlns="http://www.w3.org/2000/svg">
    <symbol id="calling" viewBox="0 0 21 21" fill="none">    
        <path d="M1.49006 3.37521C1.80606 2.85021 3.55006 0.945209 4.79306 1.00121C5.16524 1.05791 5.50664 1.24079 5.76006 1.51921C6.71668 2.5268 7.54528 3.64861 8.22706 4.85921C8.47206 6.02721 7.07806 6.70121 7.50006 7.87921C7.99663 9.15342 8.75251 10.3106 9.71977 11.2773C10.687 12.2441 11.8446 12.9993 13.1191 13.4952C14.2961 13.9222 14.9701 12.5302 16.1381 12.7722C17.3488 13.4541 18.4707 14.2831 19.4781 15.2402C19.7563 15.4936 19.9389 15.8351 19.9951 16.2072C20.0411 17.5162 18.0181 19.2842 17.6241 19.5072C16.6941 20.1732 15.4801 20.1612 14.0001 19.4732C9.87406 17.7582 3.27406 11.2832 1.52406 7.00121C0.854058 5.52621 0.809058 4.30121 1.49006 3.37521Z" stroke="" stroke-width="1.5" stroke-miterlimit="10" stroke-linecap="round" stroke-linejoin="round"/>
        <path d="M13.0649 1.25122C14.8622 1.45088 16.5381 2.2557 17.8176 3.53353C19.097 4.81136 19.904 6.48625 20.1059 8.28322" stroke="" stroke-width="1.5" stroke-miterlimit="10" stroke-linecap="round" stroke-linejoin="round"/>
        <path d="M13.0649 4.79419C13.9306 4.96249 14.7263 5.38558 15.3499 6.00919C15.9735 6.6328 16.3966 7.42848 16.5649 8.29419" stroke="" stroke-width="1.5" stroke-miterlimit="10" stroke-linecap="round" stroke-linejoin="round"/>
    </symbol>
    <symbol id="filter" viewBox="0 0 28 28" fill="none">   
        <path d="M3.5 9.33398H7" stroke="black" stroke-width="1.5" stroke-linecap="round" stroke-linejoin="round"/>
        <path d="M3.5 18.666H10.5" stroke="black" stroke-width="1.5" stroke-linecap="round" stroke-linejoin="round"/>
        <path d="M21 18.666H24.5" stroke="black" stroke-width="1.5" stroke-linecap="round" stroke-linejoin="round"/>
        <path d="M17.5 9.33398L24.5 9.33398" stroke="black" stroke-width="1.5" stroke-linecap="round" stroke-linejoin="round"/>
        <ellipse cx="17.5" cy="18.666" rx="3.5" ry="3.5" stroke="black" stroke-width="1.5"/>
        <ellipse cx="10.5" cy="9.33398" rx="3.5" ry="3.5" stroke="black" stroke-width="1.5"/>
    </symbol>
    <symbol id="search" viewBox="0 0 28 28" fill="none">   
        <circle cx="13.7279" cy="13.7269" r="10.4867" stroke="black" stroke-width="1.5" stroke-linecap="round" stroke-linejoin="round"/>
        <path d="M21.0215 21.5645L25.1328 25.6651" stroke="black" stroke-width="1.5" stroke-linecap="round" stroke-linejoin="round"/>
    </symbol>
    <symbol id="aqar" viewBox="0 0 64 64" fill="none"> 
        <g clip-path="url(#clip0_36_3950)">
        <path d="M41.1602 6.96H32.2102C31.9402 6.96 31.7202 6.74 31.7202 6.47V0.49C31.7202 0.22 31.9402 0 32.2102 0H41.1602C41.3302 0 41.4902 0.09 41.5802 0.23C41.6702 0.37 41.6802 0.55 41.6002 0.71L40.2502 3.48L41.6002 6.25C41.6802 6.4 41.6702 6.58 41.5802 6.73C41.4902 6.87 41.3302 6.96 41.1602 6.96ZM32.7102 5.97H40.3802L39.2702 3.69C39.2002 3.55 39.2002 3.39 39.2702 3.26L40.3802 0.98H32.7102V5.97ZM4.73023 57.64C4.46023 57.64 4.24023 57.42 4.24023 57.15V39.42C4.24023 39.15 4.46023 38.93 4.73023 38.93C5.00023 38.93 5.22023 39.15 5.22023 39.42V57.14C5.22023 57.42 5.00023 57.64 4.73023 57.64ZM59.7002 57.64C59.4302 57.64 59.2102 57.42 59.2102 57.15V39.63C59.2102 39.36 59.4302 39.14 59.7002 39.14C59.9702 39.14 60.1902 39.36 60.1902 39.63V57.15C60.1902 57.42 59.9702 57.64 59.7002 57.64Z" fill="#009E52"/>
        <path d="M1.97967 41.0792C1.22967 41.0792 0.52967 40.6392 0.19967 39.9592C-0.0303302 39.4892 -0.0703302 38.9492 0.10967 38.4492C0.28967 37.9492 0.63967 37.5492 1.11967 37.3192L20.0697 28.1092C20.3097 27.9892 20.6097 28.0892 20.7297 28.3392C20.8497 28.5792 20.7497 28.8792 20.4997 28.9992L1.54967 38.1992C1.30967 38.3192 1.12967 38.5192 1.03967 38.7692C0.94967 39.0192 0.96967 39.2892 1.08967 39.5292C1.31967 40.0092 1.87967 40.2392 2.42967 39.9892L20.0697 31.4192C20.3197 31.2992 20.6097 31.3992 20.7297 31.6492C20.8497 31.8892 20.7497 32.1892 20.4997 32.3092L2.84967 40.8792C2.55967 41.0092 2.26967 41.0792 1.97967 41.0792ZM62.0197 41.0792C61.7197 41.0792 61.4297 41.0092 61.1597 40.8892L43.9197 32.5092C43.6797 32.3892 43.5697 32.0992 43.6897 31.8492C43.8097 31.5992 44.0997 31.4992 44.3497 31.6192L61.5797 39.9892C62.0497 40.2092 62.6597 40.0092 62.8997 39.5192C63.0197 39.2692 63.0397 38.9992 62.9497 38.7492C62.8597 38.4992 62.6897 38.3092 62.4497 38.1892L43.9197 29.1792C43.6797 29.0592 43.5697 28.7692 43.6897 28.5192C43.8097 28.2792 44.0997 28.1692 44.3497 28.2892L62.8797 37.2992C63.3497 37.5192 63.7097 37.9192 63.8797 38.4192C64.0597 38.9192 64.0197 39.4692 63.7897 39.9492C63.4597 40.6492 62.7797 41.0792 62.0197 41.0792Z" fill="#009E52"/>
        <path d="M44.1398 57.6394C43.8698 57.6394 43.6498 57.4194 43.6498 57.1494V21.3494C43.6498 21.0794 43.8698 20.8594 44.1398 20.8594C44.4098 20.8594 44.6298 21.0794 44.6298 21.3494V57.1494C44.6398 57.4194 44.4198 57.6394 44.1398 57.6394ZM20.2898 57.6394C20.0198 57.6394 19.7998 57.4194 19.7998 57.1494V21.3494C19.7998 21.0794 20.0198 20.8594 20.2898 20.8594C20.5598 20.8594 20.7798 21.0794 20.7798 21.3494V57.1494C20.7798 57.4194 20.5598 57.6394 20.2898 57.6394Z" fill="#009E52"/>
        <path d="M47.87 24.1296C47.46 24.1296 47.07 23.9996 46.73 23.7696L32.22 13.5396L17.7 23.7696C16.84 24.3796 15.55 24.1496 14.94 23.2896C14.31 22.3996 14.53 21.1596 15.42 20.5296L31.94 9.18961C32.11 9.06961 32.33 9.06961 32.5 9.18961L49 20.5196C49.9 21.1496 50.11 22.3896 49.48 23.2796C49.12 23.8096 48.51 24.1296 47.87 24.1296ZM32.22 12.4396C32.32 12.4396 32.42 12.4696 32.5 12.5296L47.3 22.9596C47.73 23.2596 48.38 23.1496 48.69 22.7196C49.01 22.2696 48.9 21.6496 48.45 21.3296L32.22 10.1996L15.99 21.3296C15.55 21.6396 15.44 22.2696 15.75 22.7196C16.05 23.1496 16.7 23.2696 17.14 22.9596L31.94 12.5296C32.02 12.4696 32.12 12.4396 32.22 12.4396ZM39.24 39.2796H25.2C24.93 39.2796 24.71 39.0596 24.71 38.7896V32.4896C24.71 32.2196 24.93 31.9996 25.2 31.9996H39.24C39.51 31.9996 39.73 32.2196 39.73 32.4896V38.7896C39.73 39.0596 39.51 39.2796 39.24 39.2796ZM25.69 38.2996H38.75V32.9796H25.69V38.2996Z" fill="#009E52"/>
        <path d="M39.2401 29.2292H25.2001C24.9301 29.2292 24.7101 29.0092 24.7101 28.7392V22.4392C24.7101 22.1692 24.9301 21.9492 25.2001 21.9492H39.2401C39.5101 21.9492 39.7301 22.1692 39.7301 22.4392V28.7392C39.7301 29.0092 39.5101 29.2292 39.2401 29.2292ZM25.6901 28.2392H38.7501V22.9192H25.6901V28.2392ZM16.1201 51.8592H9.11012C8.84012 51.8592 8.62012 51.6392 8.62012 51.3692V43.6992C8.62012 41.4892 10.4101 39.6992 12.6201 39.6992C14.8201 39.6992 16.6201 41.4992 16.6201 43.6992V51.3692C16.6201 51.6392 16.4001 51.8592 16.1201 51.8592ZM9.60012 50.8792H15.6301V43.6992C15.6301 42.0392 14.2801 40.6792 12.6201 40.6792C10.9601 40.6792 9.61012 42.0292 9.61012 43.6992V50.8792H9.60012ZM55.3701 51.8592H48.3601C48.0901 51.8592 47.8701 51.6392 47.8701 51.3692V43.6992C47.8701 41.4892 49.6601 39.6992 51.8701 39.6992C54.0701 39.6992 55.8701 41.4992 55.8701 43.6992V51.3692C55.8601 51.6392 55.6401 51.8592 55.3701 51.8592ZM48.8501 50.8792H54.8801V43.6992C54.8801 42.0392 53.5301 40.6792 51.8701 40.6792C50.2101 40.6792 48.8601 42.0292 48.8601 43.6992V50.8792H48.8501ZM37.5401 57.6392C37.2701 57.6392 37.0501 57.4192 37.0501 57.1492V45.4492H26.9601V57.1492C26.9601 57.4192 26.7401 57.6392 26.4701 57.6392C26.2001 57.6392 25.9801 57.4192 25.9801 57.1492V44.9592C25.9801 44.6892 26.2001 44.4692 26.4701 44.4692H37.5401C37.8101 44.4692 38.0301 44.6892 38.0301 44.9592V57.1492C38.0301 57.4192 37.8101 57.6392 37.5401 57.6392Z" fill="#009E52"/>
        <path d="M60.6798 60.5104C60.4098 60.5104 60.1898 60.2904 60.1898 60.0204V57.6404H3.81984V60.0204C3.81984 60.2904 3.59984 60.5104 3.32984 60.5104C3.05984 60.5104 2.83984 60.2904 2.83984 60.0204V57.1404C2.83984 56.8704 3.05984 56.6504 3.32984 56.6504H60.6798C60.9498 56.6504 61.1698 56.8704 61.1698 57.1404V60.0204C61.1698 60.2904 60.9498 60.5104 60.6798 60.5104Z" fill="#009E52"/>
        <path d="M61.7303 64.0007H2.27027C2.00027 64.0007 1.78027 63.7807 1.78027 63.5107V60.0207C1.78027 59.7507 2.00027 59.5307 2.27027 59.5307H61.7303C62.0003 59.5307 62.2203 59.7507 62.2203 60.0207V63.5107C62.2203 63.7807 62.0003 64.0007 61.7303 64.0007ZM2.76027 63.0207H61.2403V60.5107H2.76027V63.0207ZM32.2203 10.0907C31.9503 10.0907 31.7303 9.8707 31.7303 9.6007V6.4607C31.7303 6.1907 31.9503 5.9707 32.2203 5.9707C32.4903 5.9707 32.7103 6.1907 32.7103 6.4607V9.6007C32.7103 9.8707 32.4903 10.0907 32.2203 10.0907Z" fill="#009E52"/>
        </g>
        <defs>
        <clipPath id="clip0_36_3950">
        <rect width="64" height="64" fill="white"/>
        </clipPath>
        </defs>
    </symbol>
    <symbol id="listFormat1" viewBox="0 0 32 32">   
        <path d="M4.94633 21.72C4.81952 21.5986 4.66999 21.5035 4.50633 21.44C4.18171 21.3066 3.81761 21.3066 3.49299 21.44C3.32932 21.5035 3.1798 21.5986 3.05299 21.72C2.9316 21.8468 2.83645 21.9963 2.77299 22.16C2.67089 22.4028 2.64299 22.6704 2.69282 22.9291C2.74265 23.1877 2.86798 23.4258 3.05299 23.6133C3.18259 23.7311 3.33141 23.8258 3.49299 23.8933C3.65259 23.9639 3.82516 24.0003 3.99966 24.0003C4.17415 24.0003 4.34673 23.9639 4.50633 23.8933C4.66791 23.8258 4.81672 23.7311 4.94633 23.6133C5.13134 23.4258 5.25666 23.1877 5.3065 22.9291C5.35633 22.6704 5.32843 22.4028 5.22633 22.16C5.16287 21.9963 5.06771 21.8468 4.94633 21.72ZM9.33299 10.6667H27.9997C28.3533 10.6667 28.6924 10.5262 28.9425 10.2761C29.1925 10.0261 29.333 9.68696 29.333 9.33333C29.333 8.97971 29.1925 8.64057 28.9425 8.39052C28.6924 8.14048 28.3533 8 27.9997 8H9.33299C8.97937 8 8.64023 8.14048 8.39018 8.39052C8.14014 8.64057 7.99966 8.97971 7.99966 9.33333C7.99966 9.68696 8.14014 10.0261 8.39018 10.2761C8.64023 10.5262 8.97937 10.6667 9.33299 10.6667ZM4.94633 15.0533C4.75883 14.8683 4.52073 14.743 4.26208 14.6932C4.00342 14.6433 3.73581 14.6712 3.49299 14.7733C3.33141 14.8409 3.18259 14.9356 3.05299 15.0533C2.9316 15.1801 2.83645 15.3297 2.77299 15.4933C2.70245 15.6529 2.66602 15.8255 2.66602 16C2.66602 16.1745 2.70245 16.3471 2.77299 16.5067C2.84051 16.6682 2.93522 16.8171 3.05299 16.9467C3.18259 17.0644 3.33141 17.1591 3.49299 17.2267C3.65259 17.2972 3.82516 17.3336 3.99966 17.3336C4.17415 17.3336 4.34673 17.2972 4.50633 17.2267C4.66791 17.1591 4.81672 17.0644 4.94633 16.9467C5.0641 16.8171 5.1588 16.6682 5.22633 16.5067C5.29687 16.3471 5.3333 16.1745 5.3333 16C5.3333 15.8255 5.29687 15.6529 5.22633 15.4933C5.16287 15.3297 5.06771 15.1801 4.94633 15.0533ZM27.9997 14.6667H9.33299C8.97937 14.6667 8.64023 14.8071 8.39018 15.0572C8.14014 15.3072 7.99966 15.6464 7.99966 16C7.99966 16.3536 8.14014 16.6928 8.39018 16.9428C8.64023 17.1929 8.97937 17.3333 9.33299 17.3333H27.9997C28.3533 17.3333 28.6924 17.1929 28.9425 16.9428C29.1925 16.6928 29.333 16.3536 29.333 16C29.333 15.6464 29.1925 15.3072 28.9425 15.0572C28.6924 14.8071 28.3533 14.6667 27.9997 14.6667ZM4.94633 8.38667C4.81952 8.26528 4.66999 8.17013 4.50633 8.10667C4.26351 8.00456 3.99589 7.97666 3.73724 8.0265C3.47859 8.07633 3.24049 8.20166 3.05299 8.38667C2.93522 8.51627 2.84051 8.66509 2.77299 8.82667C2.70245 8.98627 2.66602 9.15884 2.66602 9.33333C2.66602 9.50783 2.70245 9.6804 2.77299 9.84C2.84051 10.0016 2.93522 10.1504 3.05299 10.28C3.18259 10.3978 3.33141 10.4925 3.49299 10.56C3.73581 10.6621 4.00342 10.69 4.26208 10.6402C4.52073 10.5903 4.75883 10.465 4.94633 10.28C5.0641 10.1504 5.1588 10.0016 5.22633 9.84C5.29687 9.6804 5.3333 9.50783 5.3333 9.33333C5.3333 9.15884 5.29687 8.98627 5.22633 8.82667C5.1588 8.66509 5.0641 8.51627 4.94633 8.38667ZM27.9997 21.3333H9.33299C8.97937 21.3333 8.64023 21.4738 8.39018 21.7239C8.14014 21.9739 7.99966 22.313 7.99966 22.6667C7.99966 23.0203 8.14014 23.3594 8.39018 23.6095C8.64023 23.8595 8.97937 24 9.33299 24H27.9997C28.3533 24 28.6924 23.8595 28.9425 23.6095C29.1925 23.3594 29.333 23.0203 29.333 22.6667C29.333 22.313 29.1925 21.9739 28.9425 21.7239C28.6924 21.4738 28.3533 21.3333 27.9997 21.3333Z" fill=""/>
    </symbol>
     <symbol id="listFormat2" viewBox="0 0 24 24" fill="none">   
       <path d="M22 8.52V3.98C22 2.57 21.36 2 19.77 2H15.73C14.14 2 13.5 2.57 13.5 3.98V8.51C13.5 9.93 14.14 10.49 15.73 10.49H19.77C21.36 10.5 22 9.93 22 8.52Z" stroke="" stroke-width="1.5" stroke-linecap="round" stroke-linejoin="round"/>
        <path d="M22 19.77V15.73C22 14.14 21.36 13.5 19.77 13.5H15.73C14.14 13.5 13.5 14.14 13.5 15.73V19.77C13.5 21.36 14.14 22 15.73 22H19.77C21.36 22 22 21.36 22 19.77Z" stroke="" stroke-width="1.5" stroke-linecap="round" stroke-linejoin="round"/>
        <path d="M10.5 8.52V3.98C10.5 2.57 9.86 2 8.27 2H4.23C2.64 2 2 2.57 2 3.98V8.51C2 9.93 2.64 10.49 4.23 10.49H8.27C9.86 10.5 10.5 9.93 10.5 8.52Z" stroke="" stroke-width="1.5" stroke-linecap="round" stroke-linejoin="round"/>
        <path d="M10.5 19.77V15.73C10.5 14.14 9.86 13.5 8.27 13.5H4.23C2.64 13.5 2 14.14 2 15.73V19.77C2 21.36 2.64 22 4.23 22H8.27C9.86 22 10.5 21.36 10.5 19.77Z" stroke="" stroke-width="1.5" stroke-linecap="round" stroke-linejoin="round"/>
    </symbol>
    <symbol id="location" viewBox="0 0 24 25" fill="none">   
        <path d="M11.9999 13.9295C13.723 13.9295 15.1199 12.5326 15.1199 10.8095C15.1199 9.08633 13.723 7.68945 11.9999 7.68945C10.2768 7.68945 8.87988 9.08633 8.87988 10.8095C8.87988 12.5326 10.2768 13.9295 11.9999 13.9295Z" stroke="#64748B" stroke-width="1.5"/>
        <path d="M3.61971 8.99C5.58971 0.330002 18.4197 0.340003 20.3797 9C21.5297 14.08 18.3697 18.38 15.5997 21.04C13.5897 22.98 10.4097 22.98 8.38971 21.04C5.62971 18.38 2.46971 14.07 3.61971 8.99Z" stroke="#64748B" stroke-width="1.5"/>
    </symbol>
    <symbol id="buildings" viewBox="0 0 64 64" fill="none">   
        <path d="M34.6663 60.6673H13.333C6.87967 60.6673 3.33301 57.1207 3.33301 50.6673V29.334C3.33301 22.8807 6.87967 19.334 13.333 19.334H26.6663C27.7597 19.334 28.6663 20.2407 28.6663 21.334V50.6673C28.6663 54.8807 30.453 56.6673 34.6663 56.6673C35.7597 56.6673 36.6663 57.574 36.6663 58.6673C36.6663 59.7607 35.7597 60.6673 34.6663 60.6673ZM13.333 23.334C9.11968 23.334 7.33301 25.1207 7.33301 29.334V50.6673C7.33301 54.8807 9.11968 56.6673 13.333 56.6673H26.133C25.173 55.094 24.6663 53.094 24.6663 50.6673V23.334H13.333Z" fill="#09080D"/>
        <path d="M26.6663 23.3327H13.333C12.2397 23.3327 11.333 22.426 11.333 21.3327V15.9993C11.333 11.946 14.613 8.66602 18.6663 8.66602H26.9596C27.573 8.66602 28.1597 8.95929 28.533 9.43929C28.9064 9.94596 29.0396 10.586 28.8796 11.1727C28.7196 11.7594 28.6663 12.426 28.6663 13.3327V21.3327C28.6663 22.426 27.7597 23.3327 26.6663 23.3327ZM15.333 19.3327H24.6663V13.3327C24.6663 13.0927 24.6663 12.8793 24.6663 12.666H18.6663C16.8263 12.666 15.333 14.1593 15.333 15.9993V19.3327Z" fill="#09080D"/>
        <path d="M37.333 36.6673C36.2397 36.6673 35.333 35.7607 35.333 34.6673V21.334C35.333 20.2407 36.2397 19.334 37.333 19.334C38.4263 19.334 39.333 20.2407 39.333 21.334V34.6673C39.333 35.7607 38.4263 36.6673 37.333 36.6673Z" fill="#09080D"/>
        <path d="M48 36.6673C46.9067 36.6673 46 35.7607 46 34.6673V21.334C46 20.2407 46.9067 19.334 48 19.334C49.0933 19.334 50 20.2407 50 21.334V34.6673C50 35.7607 49.0933 36.6673 48 36.6673Z" fill="#09080D"/>
        <path d="M47.9997 60.6673H37.333C36.2397 60.6673 35.333 59.7607 35.333 58.6673V48.0007C35.333 45.4407 37.4397 43.334 39.9997 43.334H45.333C47.893 43.334 49.9997 45.4407 49.9997 48.0007V58.6673C49.9997 59.7607 49.093 60.6673 47.9997 60.6673ZM39.333 56.6673H45.9997V48.0007C45.9997 47.6273 45.7063 47.334 45.333 47.334H39.9997C39.6263 47.334 39.333 47.6273 39.333 48.0007V56.6673Z" fill="#09080D"/>
        <path d="M16 47.3327C14.9067 47.3327 14 46.426 14 45.3327V34.666C14 33.5727 14.9067 32.666 16 32.666C17.0933 32.666 18 33.5727 18 34.666V45.3327C18 46.426 17.0933 47.3327 16 47.3327Z" fill="#09080D"/>
        <path d="M50.667 60.6673H34.667C28.2137 60.6673 24.667 57.1207 24.667 50.6673V13.334C24.667 6.88065 28.2137 3.33398 34.667 3.33398H50.667C57.1203 3.33398 60.667 6.88065 60.667 13.334V50.6673C60.667 57.1207 57.1203 60.6673 50.667 60.6673ZM34.667 7.33398C30.4537 7.33398 28.667 9.12065 28.667 13.334V50.6673C28.667 54.8807 30.4537 56.6673 34.667 56.6673H50.667C54.8803 56.6673 56.667 54.8807 56.667 50.6673V13.334C56.667 9.12065 54.8803 7.33398 50.667 7.33398H34.667Z" fill="#09080D"/>
    </symbol>
    <symbol id="support" viewBox="0 0 64 64" fill="none">   
        <path d="M32 60.666C30.1333 60.666 28.24 59.9459 26.8267 58.5326L22.2667 54.026C21.12 52.906 19.6267 52.2926 18.0267 52.2926H16C10.48 52.2926 6 47.8394 6 42.3727V13.2793C6 7.81263 10.48 3.35938 16 3.35938H48C53.52 3.35938 58 7.81263 58 13.2793V42.3727C58 47.8394 53.52 52.2926 48 52.2926H45.9734C44.3733 52.2926 42.8533 52.906 41.7333 54.026L37.1733 58.5326C35.76 59.9459 33.8667 60.666 32 60.666ZM16 7.33268C12.6933 7.33268 10 9.99927 10 13.2526V42.346C10 45.626 12.6933 48.266 16 48.266H18.0267C20.6933 48.266 23.2 49.3059 25.0933 51.1725L29.6533 55.6794C30.96 56.9594 33.0667 56.9594 34.3733 55.6794L38.9333 51.1725C40.8267 49.3059 43.3333 48.266 46 48.266H48C51.3067 48.266 54 45.5994 54 42.346V13.2526C54 9.9726 51.3067 7.33268 48 7.33268H16Z" fill="#09080D"/>
        <path d="M27.6806 38.6927H20.5339C19.3606 38.6927 18.2673 38.1325 17.5739 37.1725C16.9073 36.2659 16.7473 35.1461 17.0673 34.0794C18.0006 31.2261 20.2939 29.6793 22.3206 28.2926C24.4539 26.8526 25.6539 25.9461 25.6539 24.3994C25.6539 23.0127 24.5339 21.8926 23.1473 21.8926C21.7606 21.8926 20.6406 23.0127 20.6406 24.3994C20.6406 25.4927 19.734 26.3994 18.6406 26.3994C17.5473 26.3994 16.6406 25.4927 16.6406 24.3994C16.6406 20.8261 19.5473 17.8926 23.1473 17.8926C26.7473 17.8926 29.6539 20.7994 29.6539 24.3994C29.6539 28.1594 26.8273 30.0793 24.5606 31.626C23.1473 32.586 21.8139 33.4927 21.1473 34.6927H27.6539C28.7473 34.6927 29.6539 35.5994 29.6539 36.6927C29.6539 37.786 28.774 38.6927 27.6806 38.6927Z" fill="#09080D"/>
        <path d="M42.7733 38.6938C41.68 38.6938 40.7733 37.7872 40.7733 36.6938V34.8537H35.5467C35.5467 34.8537 35.5467 34.8537 35.52 34.8537C34.2134 34.8537 33.0133 34.1605 32.3467 33.0405C31.68 31.8939 31.68 30.4805 32.3467 29.3605C34.16 26.2405 36.2667 22.6937 38.1867 19.6004C39.04 18.2404 40.6667 17.6272 42.1867 18.0539C43.7067 18.5072 44.7733 19.894 44.7467 21.494V30.8804H45.3333C46.4267 30.8804 47.3333 31.787 47.3333 32.8804C47.3333 33.9737 46.4267 34.8804 45.3333 34.8804H44.7733V36.7205C44.7733 37.8139 43.8933 38.6938 42.7733 38.6938ZM40.7733 23.0405C39.2 25.6005 37.5733 28.347 36.1066 30.8537H40.7733V23.0405Z" fill="#09080D"/>
    </symbol>
    <symbol id="map" viewBox="0 0 64 64" fill="none">   
        <path d="M41.7331 57.0938C40.5864 57.0938 39.4398 56.8538 38.5064 56.4004L24.5064 49.3871C23.7064 48.9871 22.1331 49.0137 21.3598 49.4671L15.0664 53.0671C12.3464 54.6138 9.54645 54.8271 7.43978 53.5738C5.30645 52.3471 4.10645 49.8404 4.10645 46.6937V20.7737C4.10645 18.3471 5.70645 15.6004 7.81311 14.4004L19.3598 7.78708C21.3064 6.66708 24.2664 6.58708 26.2664 7.60041L40.2664 14.6137C41.0664 15.0137 42.6131 14.9604 43.4131 14.5337L49.6798 10.9604C52.3998 9.41375 55.1998 9.20042 57.3064 10.4537C59.4398 11.6804 60.6398 14.1871 60.6398 17.3337V43.2804C60.6398 45.7071 59.0398 48.4538 56.9331 49.6538L45.3864 56.2671C44.3731 56.8004 43.0398 57.0938 41.7331 57.0938ZM23.0398 45.1204C24.1864 45.1204 25.3331 45.3604 26.2664 45.8138L40.2664 52.8271C41.0664 53.2271 42.6131 53.1738 43.4131 52.7471L54.9598 46.1337C55.8131 45.6537 56.6398 44.2137 56.6398 43.2537V17.3071C56.6398 15.6271 56.1598 14.3737 55.2798 13.8937C54.4264 13.4137 53.0931 13.6004 51.6531 14.4271L45.3864 18.0004C43.4398 19.1204 40.4798 19.2004 38.4798 18.1871L24.4798 11.1737C23.6798 10.7737 22.1331 10.8271 21.3331 11.2537L9.78645 17.8671C8.93311 18.3471 8.10645 19.7871 8.10645 20.7737V46.7204C8.10645 48.4004 8.58645 49.6538 9.43978 50.1338C10.2931 50.6404 11.6264 50.4271 13.0931 49.6004L19.3598 46.0271C20.3998 45.4137 21.7331 45.1204 23.0398 45.1204Z" fill="#09080D"/>
        <path d="M22.8271 47.3327C21.7338 47.3327 20.8271 46.426 20.8271 45.3327V10.666C20.8271 9.57268 21.7338 8.66602 22.8271 8.66602C23.9205 8.66602 24.8272 9.57268 24.8272 10.666V45.3327C24.8272 46.426 23.9205 47.3327 22.8271 47.3327Z" fill="#09080D"/>
        <path d="M41.9463 55.3343C40.853 55.3343 39.9463 54.4276 39.9463 53.3343V17.6543C39.9463 16.561 40.853 15.6543 41.9463 15.6543C43.0396 15.6543 43.9463 16.561 43.9463 17.6543V53.3343C43.9463 54.4276 43.0396 55.3343 41.9463 55.3343Z" fill="#09080D"/>
    </symbol>
     <symbol id="whatsapp" viewBox="0 0 25 24">   
        <path fill-rule="evenodd" clip-rule="evenodd" d="M20.9 3.45C18.65 1.2 15.65 0 12.5 0C5.9 0 0.5 5.4 0.5 12C0.5 14.1 1.10001 16.2 2.15001 18L0.5 24L6.80002 22.35C8.60002 23.25 10.55 23.85 12.5 23.85C19.1 23.85 24.5 18.45 24.5 11.85C24.5 8.7 23.15 5.7 20.9 3.45ZM12.5 21.9C10.7 21.9 8.90001 21.45 7.40001 20.55L7.09999 20.4L3.34999 21.45L4.40001 17.85L4.09999 17.4C3.04999 15.75 2.59999 13.95 2.59999 12.15C2.59999 6.75 7.1 2.25 12.5 2.25C15.2 2.25 17.6 3.3 19.55 5.1C21.5 7.05 22.4 9.45 22.4 12.15C22.4 17.4 18.05 21.9 12.5 21.9ZM17.9 14.4C17.6 14.25 16.1 13.5 15.8 13.5C15.5 13.35 15.35 13.35 15.2 13.65C15.05 13.95 14.45 14.55 14.3 14.85C14.15 15 14 15 13.7 15C13.4 14.85 12.5 14.55 11.3 13.5C10.4 12.75 9.80001 11.7 9.65001 11.4C9.50001 11.1 9.65002 10.95 9.80002 10.8C9.95002 10.65 10.1 10.5 10.25 10.35C10.4 10.2 10.4 10.05 10.55 9.9C10.7 9.75 10.55 9.6 10.55 9.45C10.55 9.3 9.95001 7.8 9.65001 7.2C9.50001 6.75 9.20002 6.75 9.05002 6.75C8.90002 6.75 8.74998 6.75 8.44998 6.75C8.29998 6.75 7.99998 6.75 7.69998 7.05C7.39998 7.35 6.65001 8.1 6.65001 9.6C6.65001 11.1 7.69999 12.45 7.84999 12.75C7.99999 12.9 9.94998 16.05 12.95 17.25C15.5 18.3 15.95 18 16.55 18C17.15 18 18.35 17.25 18.5 16.65C18.8 15.9 18.8 15.3 18.65 15.3C18.5 14.55 18.2 14.55 17.9 14.4Z" fill=""/>
    </symbol>
    <symbol id="twitter" viewBox="0 0 25 20" fill="none">   
      <path d="M24.5 2.3099C23.5972 2.70369 22.6424 2.96541 21.665 3.08701C22.6951 2.47583 23.4652 1.50804 23.8294 0.367006C22.8652 0.938879 21.8102 1.34165 20.7102 1.55789C20.0356 0.8371 19.1597 0.335948 18.1965 0.119593C17.2332 -0.096761 16.2271 -0.0183088 15.3091 0.34475C14.391 0.707809 13.6034 1.33868 13.0487 2.15534C12.4939 2.97199 12.1977 3.93666 12.1986 4.92391C12.1948 5.30063 12.233 5.67661 12.3126 6.04485C10.3552 5.94889 8.44012 5.44089 6.69251 4.55407C4.9449 3.66725 3.40414 2.42158 2.17094 0.898481C1.53781 1.98083 1.34161 3.26401 1.62239 4.4861C1.90316 5.7082 2.63974 6.77707 3.68179 7.47455C2.90329 7.45352 2.14124 7.24566 1.45987 6.86851V6.92212C1.46115 8.05833 1.85384 9.15942 2.57183 10.04C3.28982 10.9206 4.28928 11.527 5.40196 11.7571C4.98102 11.868 4.5472 11.9225 4.11189 11.9191C3.79932 11.9246 3.48706 11.8964 3.18053 11.835C3.49853 12.8115 4.11139 13.6655 4.93475 14.2793C5.75811 14.8931 6.75148 15.2366 7.77813 15.2625C6.03653 16.6245 3.88865 17.3633 1.67773 17.3611C1.28411 17.3637 0.890726 17.341 0.5 17.2933C2.74981 18.7431 5.37144 19.51 8.04788 19.5014C17.1017 19.5014 22.0519 12.0015 22.0519 5.50046C22.0519 5.28285 22.0444 5.07304 22.0339 4.86445C23.0044 4.16993 23.8401 3.30425 24.5 2.3099Z" fill="#128EE7"/>
    </symbol>
     <symbol id="facebook" viewBox="0 0 13 24" fill="none">   
       <g clip-path="url(#clip0_36_3975)">
        <path d="M8.58805 23.9963V13.0512H12.2619L12.8119 8.7858H8.58805V6.06243C8.58805 4.82751 8.93103 3.98585 10.7021 3.98585L12.9608 3.9848V0.169846C12.57 0.118053 11.2293 0.00195312 9.66945 0.00195312C6.41286 0.00195312 4.18333 1.98967 4.18333 5.64021V8.78591H0.5V13.0514H4.18321V23.9964L8.58805 23.9963Z" fill="#0070C0"/>
        </g>
        <defs>
        <clipPath id="clip0_36_3975">
        <rect width="12.4608" height="24" fill="white" transform="translate(0.5)"/>
        </clipPath>
        </defs>
    </symbol>
    <symbol id="instagram" viewBox="0 0 25 24">   
        <g clip-path="url(#clip0_36_3969)">
        <path d="M17 0H8C6.01088 0 4.10322 0.790176 2.6967 2.1967C1.29018 3.60322 0.5 5.51088 0.5 7.5L0.5 16.5C0.5 18.4891 1.29018 20.3968 2.6967 21.8033C4.10322 23.2098 6.01088 24 8 24H17C18.9891 24 20.8968 23.2098 22.3033 21.8033C23.7098 20.3968 24.5 18.4891 24.5 16.5V7.5C24.5 5.51088 23.7098 3.60322 22.3033 2.1967C20.8968 0.790176 18.9891 0 17 0ZM22.25 16.5C22.25 19.395 19.895 21.75 17 21.75H8C5.105 21.75 2.75 19.395 2.75 16.5V7.5C2.75 4.605 5.105 2.25 8 2.25H17C19.895 2.25 22.25 4.605 22.25 7.5V16.5Z" fill="url(#paint0_linear_36_3969)"/>
        <path d="M12.5 6C10.9087 6 9.38258 6.63214 8.25736 7.75736C7.13214 8.88258 6.5 10.4087 6.5 12C6.5 13.5913 7.13214 15.1174 8.25736 16.2426C9.38258 17.3679 10.9087 18 12.5 18C14.0913 18 15.6174 17.3679 16.7426 16.2426C17.8679 15.1174 18.5 13.5913 18.5 12C18.5 10.4087 17.8679 8.88258 16.7426 7.75736C15.6174 6.63214 14.0913 6 12.5 6ZM12.5 15.75C11.5058 15.7488 10.5527 15.3533 9.84966 14.6503C9.14666 13.9473 8.75119 12.9942 8.75 12C8.75 9.9315 10.433 8.25 12.5 8.25C14.567 8.25 16.25 9.9315 16.25 12C16.25 14.067 14.567 15.75 12.5 15.75Z" fill="url(#paint1_linear_36_3969)"/>
        <path d="M18.9499 6.349C19.3914 6.349 19.7494 5.99105 19.7494 5.5495C19.7494 5.10795 19.3914 4.75 18.9499 4.75C18.5083 4.75 18.1504 5.10795 18.1504 5.5495C18.1504 5.99105 18.5083 6.349 18.9499 6.349Z" fill="url(#paint2_linear_36_3969)"/>
        </g>
        <defs>
        <linearGradient id="paint0_linear_36_3969" x1="2.696" y1="21.804" x2="22.304" y2="2.196" gradientUnits="userSpaceOnUse">
        <stop stop-color="#FFC107"/>
        <stop offset="0.507" stop-color="#F44336"/>
        <stop offset="0.99" stop-color="#9C27B0"/>
        </linearGradient>
        <linearGradient id="paint1_linear_36_3969" x1="8.258" y1="16.242" x2="16.742" y2="7.758" gradientUnits="userSpaceOnUse">
        <stop stop-color="#FFC107"/>
        <stop offset="0.507" stop-color="#F44336"/>
        <stop offset="0.99" stop-color="#9C27B0"/>
        </linearGradient>
        <linearGradient id="paint2_linear_36_3969" x1="18.3844" y1="6.115" x2="19.5154" y2="4.984" gradientUnits="userSpaceOnUse">
        <stop stop-color="#FFC107"/>
        <stop offset="0.507" stop-color="#F44336"/>
        <stop offset="0.99" stop-color="#9C27B0"/>
        </linearGradient>
        <clipPath id="clip0_36_3969">
        <rect width="24" height="24" fill="white" transform="translate(0.5)"/>
        </clipPath>
        </defs>
    </symbol>
    <symbol id="eye" viewBox="0 0 24 24" fill="none">   
        <path d="M21.1303 9.8531C22.2899 11.0732 22.2899 12.9268 21.1303 14.1469C19.1745 16.2047 15.8155 19 12 19C8.18448 19 4.82549 16.2047 2.86971 14.1469C1.7101 12.9268 1.7101 11.0732 2.86971 9.8531C4.82549 7.79533 8.18448 5 12 5C15.8155 5 19.1745 7.79533 21.1303 9.8531Z" stroke="#0F172A"/>
        <path d="M15 12C15 13.6569 13.6569 15 12 15C10.3431 15 9 13.6569 9 12C9 10.3431 10.3431 9 12 9C13.6569 9 15 10.3431 15 12Z" stroke="#0F172A"/>
    </symbol>
    <symbol id="share" viewBox="0 0 24 24" fill="none">   
        <path d="M8.63118 10.4344C8.05656 9.2874 6.87023 8.5 5.5 8.5C3.567 8.5 2 10.067 2 12C2 13.933 3.567 15.5 5.5 15.5C6.87023 15.5 8.05656 14.7126 8.63118 13.5656M8.63118 10.4344C8.86718 10.9055 9 11.4372 9 12C9 12.5628 8.86718 13.0945 8.63118 13.5656M8.63118 10.4344L15.3688 7.06559M8.63118 13.5656L15.3688 16.9344M15.3688 7.06559C15.9434 8.2126 17.1298 9 18.5 9C20.433 9 22 7.433 22 5.5C22 3.567 20.433 2 18.5 2C16.567 2 15 3.567 15 5.5C15 6.06276 15.1328 6.59451 15.3688 7.06559ZM15.3688 16.9344C15.1328 17.4055 15 17.9372 15 18.5C15 20.433 16.567 22 18.5 22C20.433 22 22 20.433 22 18.5C22 16.567 20.433 15 18.5 15C17.1298 15 15.9434 15.7874 15.3688 16.9344Z" stroke="" stroke-linecap="round"/>
    </symbol>
    <symbol id="gmail" viewBox="0 0 68 68" fill="none">   
        <path d="M35.2087 40.4724L8.77121 23.648C7.40443 22.7442 6.4473 21.3397 6.10591 19.737C5.76453 18.1343 6.06621 16.4617 6.94598 15.0793C7.82576 13.6969 9.21325 12.7153 10.8097 12.3458C12.4061 11.9764 14.0838 12.2487 15.4814 13.1041L34.8773 25.4464L52.292 13.2558C53.6507 12.335 55.3171 11.9857 56.9312 12.2833C58.5452 12.5808 59.9775 13.5013 60.9186 14.846C61.8597 16.1906 62.2341 17.8515 61.961 19.4699C61.6878 21.0883 60.789 22.5343 59.4587 23.4955L35.2087 40.4724Z" fill="#EA4435"/>
        <path d="M57.9583 55.875H49.625L49.625 18.375C49.625 16.7174 50.2835 15.1277 51.4556 13.9556C52.6277 12.7835 54.2174 12.125 55.875 12.125C57.5326 12.125 59.1223 12.7835 60.2944 13.9556C61.4665 15.1277 62.125 16.7174 62.125 18.375L62.125 51.7083C62.125 52.8134 61.686 53.8732 60.9046 54.6546C60.1232 55.436 59.0634 55.875 57.9583 55.875Z" fill="#00AC47"/>
        <path d="M62.0336 17.4694C62.0153 17.3444 62.0168 17.2167 61.9907 17.0919C61.9507 16.9007 61.8763 16.724 61.8193 16.5394C61.7639 16.3282 61.6973 16.12 61.6197 15.9159C61.578 15.8169 61.5138 15.7301 61.4665 15.6338C61.3369 15.3561 61.1869 15.0884 61.0178 14.8328C60.9345 14.7117 60.8303 14.6086 60.7382 14.494C60.5802 14.2858 60.4094 14.0875 60.2268 13.9005C60.0882 13.7657 59.9303 13.653 59.7797 13.5315C59.6196 13.3943 59.4527 13.2651 59.2797 13.1447C59.1145 13.0367 58.9336 12.9536 58.7588 12.8615C58.5747 12.7655 58.3943 12.6609 58.2026 12.5842C58.0174 12.5097 57.8199 12.4622 57.6263 12.4053C57.4328 12.3484 57.2403 12.2803 57.0415 12.2434C56.7953 12.2038 56.547 12.1788 56.2978 12.1684C56.1397 12.1574 55.983 12.1297 55.8243 12.1309C55.5295 12.1395 55.2358 12.1691 54.9453 12.2194C54.828 12.2369 54.7099 12.2355 54.5934 12.2597C54.2003 12.3798 53.8083 12.5034 53.4174 12.6305C53.3101 12.6763 53.2161 12.7444 53.1122 12.7961C52.0542 13.2898 51.1619 14.0793 50.543 15.0692C49.9242 16.0592 49.6053 17.2071 49.6249 18.3744V30.3786L59.4582 23.4947C60.4238 22.8466 61.181 21.9325 61.6379 20.8631C62.0949 19.7937 62.2327 18.6152 62.0336 17.4694Z" fill="#FFBA00"/>
        <path d="M12.125 12.125C13.7826 12.125 15.3723 12.7835 16.5444 13.9556C17.7165 15.1277 18.375 16.7174 18.375 18.375V55.875H10.0417C8.9366 55.875 7.87679 55.436 7.09539 54.6546C6.31399 53.8732 5.875 52.8134 5.875 51.7083V18.375C5.875 16.7174 6.53348 15.1277 7.70558 13.9556C8.87769 12.7835 10.4674 12.125 12.125 12.125Z" fill="#4285F4"/>
        <path d="M5.96647 17.4689C5.98481 17.3439 5.98335 17.2162 6.00939 17.0914C6.04939 16.9002 6.12376 16.7235 6.18085 16.5389C6.23618 16.3278 6.30281 16.1197 6.38043 15.9156C6.4221 15.8167 6.48626 15.7298 6.53376 15.6335C6.66331 15.3557 6.8133 15.0879 6.98251 14.8323C7.06585 14.7112 7.17001 14.6081 7.2621 14.4935C7.42005 14.2853 7.5908 14.0871 7.77335 13.9C7.91189 13.7652 8.06981 13.6525 8.22064 13.531C8.38067 13.3937 8.54755 13.2646 8.72064 13.1442C8.88585 13.0362 9.06668 12.9531 9.24147 12.861C9.4221 12.7589 9.60776 12.6658 9.79772 12.5823C9.98314 12.5077 10.1806 12.4602 10.374 12.4033C10.5673 12.3464 10.76 12.2783 10.9588 12.2414C11.205 12.2019 11.4533 12.1769 11.7025 12.1664C11.8608 12.1554 12.0173 12.1277 12.1761 12.1289C12.4708 12.1375 12.7645 12.1671 13.055 12.2175C13.1723 12.235 13.2904 12.2335 13.4071 12.2577C13.6088 12.3091 13.8076 12.3708 14.0029 12.4427C14.1993 12.4949 14.393 12.5569 14.5831 12.6285C14.6902 12.6744 14.7842 12.7425 14.8883 12.7942C15.1584 12.921 15.4189 13.0672 15.6679 13.2317C16.5026 13.8048 17.1852 14.5724 17.6568 15.4683C18.1285 16.3642 18.375 17.3615 18.375 18.3739V30.3781L8.54168 23.4946C7.57622 22.8463 6.81921 21.9323 6.3622 20.8629C5.90519 19.7936 5.76774 18.6147 5.96647 17.4689Z" fill="#C52528"/>
    </symbol>
    <symbol id="gallery" viewBox="0 0 23 23" fill="none">   
        <path d="M8.60742 20.625H14.2324C18.9199 20.625 20.7949 18.75 20.7949 14.0625V8.4375C20.7949 3.75 18.9199 1.875 14.2324 1.875H8.60742C3.91992 1.875 2.04492 3.75 2.04492 8.4375V14.0625C2.04492 18.75 3.91992 20.625 8.60742 20.625Z" stroke="#292D32" stroke-width="1.5" stroke-linecap="round" stroke-linejoin="round"/>
        <path d="M8.60742 9.375C9.64296 9.375 10.4824 8.53553 10.4824 7.5C10.4824 6.46447 9.64296 5.625 8.60742 5.625C7.57189 5.625 6.73242 6.46447 6.73242 7.5C6.73242 8.53553 7.57189 9.375 8.60742 9.375Z" stroke="#292D32" stroke-width="1.5" stroke-linecap="round" stroke-linejoin="round"/>
        <path d="M2.67285 17.766L7.29473 14.6629C8.03535 14.166 9.1041 14.2223 9.76973 14.7941L10.0791 15.066C10.8104 15.6941 11.9916 15.6941 12.7229 15.066L16.6228 11.7191C17.3541 11.091 18.5354 11.091 19.2666 11.7191L20.7947 13.0316" stroke="#292D32" stroke-width="1.5" stroke-linecap="round" stroke-linejoin="round"/>
    </symbol>
</svg>