<svg width="100" height="100" viewBox="0 0 100 100" fill="none" xmlns="http://www.w3.org/2000/svg">
<g clip-path="url(#clip0_36_4213)">
<path d="M85.0514 14.5321C75.6922 5.16638 63.2472 0.00571421 49.988 0C22.6652 0 0.430026 22.2281 0.419087 49.5496C0.415904 58.2831 2.69783 66.8082 7.03516 74.3229L0.00292969 100L26.28 93.1098C33.5198 97.0582 41.6714 99.1387 49.9667 99.1421H49.9877H49.988C77.3063 99.1421 99.5449 76.91 99.5565 49.5898C99.5611 36.3485 94.4094 23.8984 85.0514 14.5321ZM49.988 90.7729H49.9719C42.5779 90.769 35.327 88.7839 29.0025 85.0311L27.4974 84.1388L11.9041 88.2272L16.0673 73.0293L15.0866 71.4712C10.9622 64.9133 8.78485 57.3347 8.78796 49.5528C8.79702 26.8441 27.2781 8.36944 50.0036 8.36944C61.0085 8.37401 71.3518 12.6636 79.1309 20.4481C86.9095 28.2324 91.1901 38.5807 91.1869 49.5863C91.1772 72.2958 72.6955 90.7729 49.988 90.7729Z" fill="#E0E0E0"/>
<path d="M2.27832 97.1506L8.98933 72.6465C4.84906 65.475 2.67178 57.3387 2.6744 49.0058C2.68525 22.9328 23.905 1.7207 49.9774 1.7207C62.6316 1.72642 74.5083 6.65109 83.438 15.5892C92.3696 24.5272 97.2854 36.4078 97.2803 49.0428C97.2694 75.1164 76.0484 96.3304 49.9792 96.3304C49.9774 96.3304 49.9805 96.3304 49.9792 96.3304H49.9582C42.0418 96.3279 34.2632 94.3406 27.3546 90.5754L2.27832 97.1506Z" fill="url(#paint0_linear_36_4213)"/>
<path fill-rule="evenodd" clip-rule="evenodd" d="M37.7395 28.5133C36.8224 26.4744 35.8569 26.4336 34.9844 26.3979C34.2708 26.3673 33.4538 26.3692 32.6382 26.3692C31.8218 26.3692 30.4953 26.6759 29.3735 27.9011C28.2511 29.1262 25.0879 32.0879 25.0879 38.1114C25.0879 44.1355 29.4756 49.9563 30.0872 50.7738C30.6994 51.5901 38.5571 64.3464 51.0014 69.2538C61.3437 73.3322 63.4484 72.521 65.6932 72.3169C67.9381 72.1128 72.9367 69.3559 73.9571 66.4968C74.9775 63.6384 74.9775 61.1882 74.6714 60.6761C74.3653 60.1659 73.549 59.8597 72.3245 59.2475C71.1 58.6353 65.081 55.6729 63.9586 55.2648C62.8361 54.8566 62.0198 54.6525 61.2035 55.8783C60.3872 57.1028 58.0422 59.8597 57.3279 60.6761C56.6136 61.4943 55.8993 61.5963 54.6749 60.9841C53.4504 60.3699 49.5072 59.0784 44.8293 54.9076C41.1897 51.6627 38.7324 47.6551 38.0182 46.4294C37.3039 45.2049 37.9416 44.5417 38.5558 43.9313C39.1055 43.3828 39.7803 42.5021 40.3925 41.7872C41.0034 41.0722 41.2075 40.562 41.6157 39.7457C42.0238 38.9281 41.8198 38.2133 41.5136 37.601C41.2075 36.9888 38.8281 30.9342 37.7395 28.5133Z" fill="white"/>
<path d="M84.6464 14.375C75.3946 5.11688 63.0925 0.0155615 49.9856 0.00976562C22.9764 0.00976562 0.996417 21.9827 0.98556 48.9906C0.982377 57.6239 3.2381 66.051 7.52564 73.4795L0.574219 98.8618L26.5496 92.0506C33.7064 95.9536 41.7644 98.0104 49.9645 98.0135H49.9853H49.9856C76.9903 98.0135 98.9734 76.0368 98.9849 49.0301C98.9894 35.941 93.897 23.6339 84.6464 14.375ZM49.9856 89.7408H49.9697C42.6604 89.7369 35.4928 87.7746 29.2409 84.0648L27.753 83.1828L12.3387 87.2242L16.4541 72.2008L15.4847 70.6607C11.4076 64.178 9.25525 56.6863 9.25843 48.9939C9.26733 26.5458 27.5362 8.28329 50.0009 8.28329C60.8796 8.28778 71.104 12.5281 78.7939 20.2232C86.4832 27.9183 90.7147 38.1477 90.7115 49.0271C90.7019 71.4757 72.4323 89.7408 49.9856 89.7408Z" fill="white"/>
</g>
<defs>
<linearGradient id="paint0_linear_36_4213" x1="49.7793" y1="97.1506" x2="49.7793" y2="1.72086" gradientUnits="userSpaceOnUse">
<stop stop-color="#20B038"/>
<stop offset="1" stop-color="#60D66A"/>
</linearGradient>
<clipPath id="clip0_36_4213">
<rect width="99.56" height="100" fill="white"/>
</clipPath>
</defs>
</svg>
